<svg width="1050" height="461" viewBox="0 0 1050 461" fill="none" xmlns="http://www.w3.org/2000/svg">
<path d="M15.0738 446.115C10.5237 441.565 6.82505 436.024 4.13131 429.478C1.42362 422.792 0 415.688 0 408.151C0 400.615 1.42363 393.217 4.2709 386.532C7.11816 379.846 10.8168 374.166 15.5064 369.616C25.0392 360.376 38.2566 354.835 52.1859 354.835C63.1283 354.835 73.0938 358.101 79.7793 362.805C83.1848 365.08 86.1716 367.773 88.8793 370.774C94.1412 376.887 96.9885 383.001 98.5517 388.974L88.1675 392.673C87.3161 389.253 85.8925 385.569 82.0543 380.153C80.0584 377.446 77.9369 375.031 75.3688 372.896C72.8007 370.76 69.5347 368.918 65.4173 367.494C61.286 365.931 56.8895 365.219 51.9068 365.219C41.1039 365.219 30.7198 369.63 23.462 376.873C16.0647 384.271 11.3751 395.213 11.3751 407.44C11.3751 415.549 13.0779 422.932 16.637 429.478C20.0565 436.024 24.8857 441.132 31.2781 444.831C37.3913 448.53 44.3559 450.372 52.0324 450.372C61.5651 450.372 69.8138 447.106 74.7826 443.114C77.3368 441.118 79.6257 438.843 81.6077 436.01C83.6035 433.302 85.0272 430.888 86.0181 428.906C86.8695 426.91 87.7209 424.788 88.4327 422.653L98.8169 426.352C97.2537 431.893 94.546 437.587 89.2841 443.979C86.7299 447.106 83.6035 449.953 80.3236 452.368C73.4985 457.211 63.1144 460.756 51.7393 460.756C37.5169 460.756 24.2994 455.215 15.0598 446.115H15.0738Z" fill="#506863"/>
<path d="M220.383 434.46C215.833 442.569 209.58 448.961 201.611 453.651C193.502 458.34 184.695 460.755 174.729 460.755C167.471 460.755 160.646 459.331 154.114 456.638C147.722 453.93 142.167 450.245 137.617 445.402C133.067 440.852 129.508 435.311 126.814 428.765C124.26 422.219 122.836 415.394 122.836 408.15C122.836 398.338 125.111 389.378 129.662 381.269C134.072 373.16 140.325 366.628 148.434 361.924C156.403 357.234 165.35 354.959 175.162 354.959C182.42 354.959 189.245 356.243 195.777 358.937C202.169 361.785 207.724 365.483 212.274 370.033C216.824 374.862 220.523 380.417 223.077 386.81C225.785 393.356 227.055 400.181 227.055 407.564C227.055 417.376 224.78 426.336 220.369 434.446L220.383 434.46ZM204.458 377.863C197.354 370.047 186.677 365.064 174.743 365.064C167.067 365.064 160.102 367.06 153.835 370.759C147.583 374.737 142.739 379.859 139.334 386.251C135.914 392.797 134.212 399.902 134.212 407.578C134.212 419.093 138.468 430.049 145.587 437.726C152.691 445.542 163.368 450.524 175.162 450.524C182.838 450.524 189.803 448.528 196.07 444.69C202.462 440.992 207.305 435.73 210.711 429.337C214.116 422.945 215.833 415.827 215.833 408.15C215.833 396.496 211.576 385.679 204.458 377.863V377.863Z" fill="#506863"/>
<path d="M368.539 355.963V459.623H357.736V370.758L319.2 459.623H309.389L271.132 371.456V459.623H260.329V355.963H275.822L314.497 444.843L352.893 355.963H368.539V355.963Z" fill="#506863"/>
<path d="M420.139 419.107V459.624H409.196V355.964H443.894C469.198 355.825 480.294 371.038 480.294 387.103C480.294 396.063 476.875 403.879 470.761 409.713C464.509 415.548 454.404 419.107 442.177 419.107H420.139ZM420.139 366.209V409.016H442.456C451.696 409.016 458.954 406.308 463.071 402.051C467.188 397.92 469.184 392.811 469.184 387.41C469.184 377.319 463.35 366.223 443.028 366.223H420.139V366.209Z" fill="#506863"/>
<path d="M601.429 434.46C596.879 442.569 590.626 448.961 582.657 453.651C574.548 458.34 565.741 460.755 555.775 460.755C548.517 460.755 541.692 459.331 535.16 456.638C528.768 453.93 523.213 450.245 518.663 445.402C514.113 440.852 510.554 435.311 507.86 428.765C505.306 422.219 503.882 415.394 503.882 408.15C503.882 398.338 506.157 389.378 510.707 381.269C515.118 373.16 521.371 366.628 529.48 361.924C537.449 357.234 546.396 354.959 556.208 354.959C563.466 354.959 570.291 356.243 576.823 358.937C583.215 361.785 588.77 365.483 593.32 370.033C597.87 374.862 601.569 380.417 604.123 386.81C606.831 393.356 608.101 400.181 608.101 407.564C608.101 417.376 605.826 426.336 601.415 434.446L601.429 434.46ZM585.504 377.863C578.4 370.047 567.722 365.064 555.789 365.064C548.113 365.064 541.148 367.06 534.881 370.759C528.628 374.737 523.785 379.859 520.38 386.251C516.96 392.797 515.257 399.902 515.257 407.578C515.257 419.093 519.514 430.049 526.633 437.726C533.737 445.542 544.414 450.524 556.208 450.524C563.884 450.524 570.849 448.528 577.116 444.69C583.508 440.992 588.351 435.73 591.757 429.337C595.162 422.945 596.879 415.827 596.879 408.15C596.879 396.496 592.622 385.679 585.504 377.863V377.863Z" fill="#506863"/>
<path d="M644.78 451.515C638.387 445.974 634.256 438.576 633.405 431.319L643.635 428.471C644.766 434.585 647.906 439.707 653.014 443.964C657.997 448.235 663.678 450.356 670.084 450.356C676.058 450.356 681.599 448.933 686.009 445.806C690.42 442.819 693.267 437.697 693.267 431.444C693.267 424.187 689.429 419.497 684.586 416.664C681.166 414.668 678.193 413.816 674.774 413.105L661.123 410.397C658.276 409.825 655.289 408.834 652.023 407.41C648.757 405.847 645.91 403.991 643.496 401.576C638.666 396.886 636.238 390.913 636.238 383.655C636.238 377.974 637.801 372.852 640.927 368.442C644.054 363.892 648.032 360.626 653.014 358.211C657.997 355.936 663.259 354.792 669.079 354.792C691.411 354.792 701.209 368.581 703.344 379.677L693.392 382.804C691.69 375.406 685.004 364.883 668.94 364.883C657.844 364.603 647.041 372.419 647.18 383.222C647.18 391.192 652.149 397.584 662.254 399.58L675.332 402.134C684.153 403.837 690.978 406.824 695.528 411.234C698.654 414.082 700.929 417.348 702.353 420.767C703.777 424.326 704.488 427.453 704.488 430.286C704.628 448.486 689.275 461.006 670.07 460.573C660.258 460.573 650.879 456.874 644.766 451.473L644.78 451.515Z" fill="#506863"/>
<path d="M738.055 355.963H748.998V459.623H738.055V355.963Z" fill="#506863"/>
<path d="M823.501 459.623H812.699V366.208H778.001V355.963H858.199V366.208H823.501V459.623V459.623Z" fill="#506863"/>
<path d="M887.202 355.964H952.047V366.055H898.158V401.883H947.497V411.974H898.158V449.519H952.619V459.61H887.216V355.95L887.202 355.964Z" fill="#506863"/>
<path d="M990.29 451.515C983.884 445.974 979.767 438.576 978.915 431.319L989.146 428.471C990.29 434.585 993.417 439.707 998.539 443.964C1003.51 448.235 1009.2 450.356 1015.59 450.356C1021.57 450.356 1027.11 448.933 1031.52 445.806C1035.93 442.819 1038.78 437.697 1038.78 431.444C1038.78 424.187 1034.94 419.497 1030.1 416.664C1026.69 414.668 1023.7 413.816 1020.28 413.105L1006.63 410.397C1003.79 409.825 1000.8 408.834 997.534 407.41C994.268 405.847 991.421 403.991 989.006 401.576C984.177 396.886 981.749 390.913 981.749 383.655C981.749 377.974 983.312 372.852 986.438 368.442C989.565 363.892 993.542 360.626 998.525 358.211C1003.49 355.936 1008.76 354.792 1014.59 354.792C1036.92 354.792 1046.73 368.581 1048.85 379.677L1038.9 382.804C1037.2 375.406 1030.52 364.883 1014.45 364.883C1003.35 364.603 992.551 372.419 992.691 383.222C992.691 391.192 997.674 397.584 1007.76 399.58L1020.84 402.134C1029.66 403.837 1036.49 406.824 1041.04 411.234C1044.17 414.082 1046.44 417.348 1047.86 420.767C1049.29 424.326 1050 427.453 1050 430.286C1050.14 448.486 1034.79 461.006 1015.58 460.573C1005.77 460.573 996.39 456.874 990.276 451.473L990.29 451.515Z" fill="#506863"/>
<path fill-rule="evenodd" clip-rule="evenodd" d="M122.391 234.872L213.657 234.481C216.951 234.481 227.028 224.293 227.014 220.999L226.079 4.89977L289.152 4.62061L290.157 235.486C290.268 260.386 252.444 298.74 230.043 298.838L122.684 299.299L122.405 234.872H122.391Z" fill="#292B27"/>
<path fill-rule="evenodd" clip-rule="evenodd" d="M604.947 213.992L606.399 203.259L666.638 202.994L666.833 247.294C663.302 262.73 625.869 297.135 609.344 297.205L445.612 297.917C426.407 298 385.052 259.339 384.982 244.488L384.438 119.655L446.17 119.39L446.561 210.67C446.603 221.641 450.706 233.476 461.425 233.42L592.944 232.848H591.604C597.592 232.82 604.445 220.342 604.947 214.006" fill="#292B27"/>
<path fill-rule="evenodd" clip-rule="evenodd" d="M8.3615 244.767L7.9707 153.487L69.7034 153.222L70.3454 299.535L59.6123 299.577C51.0147 299.619 32.9262 284.168 28.404 278.487C18.313 265.814 15.6332 259.715 8.37547 244.767" fill="#282B27"/>
<path fill-rule="evenodd" clip-rule="evenodd" d="M69.6885 153.221L7.95587 153.486L8.36061 244.766L6.61597 152.104L69.6885 153.221Z" fill="#818180"/>
<path fill-rule="evenodd" clip-rule="evenodd" d="M592.037 67.7351L384.019 68.6424L383.963 55.2156C383.893 40.2674 417.028 4.06247 433.399 3.99268L618.597 3.18314C629.135 3.14127 667.084 42.5145 667.14 55.3272L667.322 98.2734L604.249 98.5526C604.207 87.987 600.369 67.6932 592.037 67.7351" fill="#292B27"/>
<path fill-rule="evenodd" clip-rule="evenodd" d="M760.834 147.527L760.206 2.56773L823.279 2.28857L823.865 136.515C823.879 141.079 853.524 168.184 853.538 169.942C853.552 174.283 823.362 199.448 818.798 206.329C812.992 202.476 760.848 150.709 760.834 147.513" fill="#2B2D29"/>
<path fill-rule="evenodd" clip-rule="evenodd" d="M979.529 133.165L980.297 1.61852L1042.03 1.33936L1042.7 155.706L903.421 296.227L861.27 255.151L979.529 133.165Z" fill="#292B27"/>
<path fill-rule="evenodd" clip-rule="evenodd" d="M979.53 133.165L978.958 0.279161L1043.4 0L1042.7 155.706L1042.03 1.33984L980.298 1.619L979.53 133.165Z" fill="#898683"/>
</svg>
